Coordinates
version=1
nRows=20
nColumns=30
inDegrees=yes

Units are S.I. units (second, meters, Newtons, ...)
Angles are in degrees.

endheader
time	floatyaw	floatroll	floatpitch	floatx	floaty	floatz	pro_sup_l	deviation_l	flexion_l	cmc_flexion_l	cmc_abduction_l	mp_flexion_l	ip_flexion_l	2mcp_flexion_l	2mcp_abduction_l	2pm_flexion_l	2md_flexion_l	3mcp_flexion_l	3mcp_abduction_l	3pm_flexion_l	3md_flexion_l	4mcp_flexion_l	4mcp_abduction_l	4pm_flexion_l	4md_flexion_l	5mcp_flexion_l	5mcp_abduction_l	5pm_flexion_l	5md_flexion_l
-0.995000	-160.147433	-5.066637	-73.570646	0.076534	-0.181190	-0.016324	99.030054	3.402440	1.570407	16.855610	10.464233	-25.738207	-42.996750	27.426089	6.542631	43.513498	29.483194	23.450225	3.841499	42.747638	27.848300	11.705279	-4.162459	50.680360	34.184326	-0.608139	-7.564840	59.273090	40.954638
-0.985000	-160.147433	-5.066637	-73.570646	0.076540	-0.181188	-0.016319	99.049807	3.418528	1.569614	16.851351	10.447263	-25.729161	-42.986781	27.423739	6.547246	43.508548	29.477079	23.440553	3.845108	42.757199	27.853721	11.704737	-4.164495	50.687351	34.189548	-0.613355	-7.571201	59.287139	40.954029
-0.975000	-160.147433	-5.066637	-73.570646	0.076546	-0.181186	-0.016310	99.059048	3.430721	1.572548	16.844997	10.436610	-25.720822	-42.971640	27.415089	6.553625	43.502678	29.476805	23.422647	3.850118	42.773763	27.863247	11.689637	-4.166960	50.707982	34.202817	-0.631019	-7.575201	59.310596	40.962526
-0.965000	-160.147433	-5.066637	-73.570646	0.076552	-0.181185	-0.016301	99.057210	3.438024	1.580314	16.834718	10.430667	-25.720808	-42.954541	27.399495	6.559494	43.500224	29.485621	23.399195	3.855923	42.791156	27.874354	11.661420	-4.169315	50.736296	34.221500	-0.657205	-7.576903	59.334922	40.977226
-0.955000	-160.147433	-5.066637	-73.570646	0.076559	-0.181181	-0.016293	99.048027	3.441192	1.591809	16.820613	10.426671	-25.733951	-42.940961	27.378420	6.562580	43.506595	29.504383	23.374779	3.861924	42.802318	27.883287	11.625727	-4.171019	50.765088	34.241490	-0.684344	-7.578710	59.353622	40.993994
-0.945000	-160.147433	-5.066637	-73.570646	0.076565	-0.181176	-0.016290	99.037247	3.441826	1.604279	16.804218	10.423923	-25.760131	-42.936729	27.355463	6.561916	43.525255	29.530648	23.353713	3.867573	42.804457	27.887723	11.590308	-4.171823	50.789318	34.258967	-0.704435	-7.584035	59.365187	41.008976
-0.935000	-160.147433	-5.066637	-73.570646	0.076570	-0.181170	-0.016293	99.029214	3.441089	1.614602	16.787309	10.426345	-25.794401	-42.945373	27.335717	6.558386	43.555280	29.559191	23.338087	3.872415	42.801912	27.888855	11.562056	-4.171957	50.808112	34.271980	-0.712328	-7.595150	59.372624	41.019526
-0.925000	-160.147433	-5.066637	-73.570646	0.076572	-0.181163	-0.016300	99.024367	3.438909	1.620691	16.770547	10.441577	-25.829230	-42.965935	27.324429	6.554160	43.590797	29.583757	23.327134	3.876103	42.804208	27.891198	11.544611	-4.172030	50.823998	34.280815	-0.707526	-7.611452	59.380098	41.024369
-0.915000	-160.147433	-5.066637	-73.570646	0.076573	-0.181157	-0.016309	99.019205	3.434191	1.622331	16.752772	10.476294	-25.857462	-42.992625	27.325403	6.551422	43.622605	29.599160	23.318353	3.878356	42.820108	27.899880	11.537623	-4.172723	50.839986	34.286882	-0.693873	-7.629259	59.389285	41.023340
-0.905000	-160.147433	-5.066637	-73.570646	0.076572	-0.181152	-0.016318	99.008717	3.425892	1.621124	16.731500	10.530825	-25.874367	-43.016752	27.339819	6.551232	43.641409	29.602774	23.309714	3.878917	42.851319	27.916972	11.537941	-4.174450	50.856611	34.291006	-0.677480	-7.643384	59.397943	41.017021
-0.895000	-160.147433	-5.066637	-73.570646	0.076572	-0.181149	-0.016324	98.989765	3.414211	1.619556	16.704596	10.597162	-25.878224	-43.030220	27.365971	6.553216	43.641489	29.595003	23.301585	3.877621	42.889972	27.939239	11.541909	-4.177171	50.870974	34.292392	-0.663898	-7.649614	59.401301	41.006398
-0.885000	-160.147433	-5.066637	-73.570646	0.076575	-0.181146	-0.016327	98.963415	3.401090	1.619628	16.672177	10.661999	-25.870030	-43.029283	27.399925	6.556107	43.623336	29.578787	23.297043	3.874611	42.921836	27.958969	11.547440	-4.180400	50.878350	34.288973	-0.655761	-7.646716	59.395096	40.992525
-0.875000	-160.147433	-5.066637	-73.570646	0.076582	-0.181144	-0.016326	98.934889	3.389608	1.621748	16.637484	10.712944	-25.853135	-43.016884	27.436720	6.558663	43.593990	29.558513	23.300340	3.870542	42.933664	27.967538	11.554769	-4.183375	50.875218	34.278780	-0.651910	-7.636896	59.378384	40.976311
-0.865000	-160.147433	-5.066637	-73.570646	0.076591	-0.181141	-0.016322	98.911221	3.382606	1.624477	16.605908	10.744226	-25.832812	-43.001968	27.471758	6.560398	43.564580	29.538683	23.314522	3.866562	42.920235	27.959630	11.565741	-4.185369	50.861699	34.261388	-0.648379	-7.624609	59.354507	40.958606
-0.855000	-160.147433	-5.066637	-73.570646	0.076601	-0.181138	-0.016316	98.898050	3.381390	1.625329	16.582593	10.758642	-25.815193	-42.995390	27.502066	6.561816	43.545610	29.522497	23.339755	3.863989	42.886674	27.935553	11.582260	-4.186028	50.841842	34.238578	-0.640657	-7.614459	59.329619	40.940531
-0.845000	-160.147433	-5.066637	-73.570646	0.076610	-0.181135	-0.016312	98.897356	3.385285	1.622260	16.570000	10.764682	-25.805382	-43.004296	27.527039	6.564165	43.541872	29.510597	23.373222	3.863835	42.844826	27.900471	11.604777	-4.185579	50.821699	34.213925	-0.626079	-7.609256	59.309694	40.923756
-0.835000	-160.147433	-5.066637	-73.570646	0.076616	-0.181132	-0.016310	98.907141	3.392168	1.615106	16.566822	10.770815	-25.805544	-43.028216	27.548115	6.568820	43.549841	29.500723	23.410258	3.866421	42.806587	27.861551	11.631426	-4.184751	50.806559	34.191630	-0.605249	-7.609074	59.297891	40.910444
-0.825000	-160.147433	-5.066637	-73.570646	0.076618	-0.181126	-0.016312	98.922848	3.399429	1.606153	16.568831	10.780744	-25.814170	-43.059234	27.567284	6.576420	43.559795	29.489155	23.445784	3.871195	42.778854	27.825253	11.658156	-4.184374	50.798941	34.175214	-0.581948	-7.611561	59.293884	40.902789
-0.815000	-160.147433	-5.066637	-73.570646	0.076616	-0.181117	-0.016320	98.939523	3.404753	1.599417	16.571058	10.792280	-25.827079	-43.085908	27.585129	6.586117	43.562133	29.473722	23.475387	3.876793	42.762638	27.796191	11.679940	-4.184861	50.798055	34.166541	-0.561706	-7.613265	59.295276	40.902289
-0.805000	-160.147433	-5.066637	-73.570646	0.076611	-0.181103	-0.016332	98.953676	3.406507	1.598891	16.570022	10.799598	-25.839542	-43.098583	27.599747	6.595486	43.554004	29.456436	23.495982	3.881389	42.755397	27.777222	11.692748	-4.185860	50.800390	34.165320	-0.549661	-7.611357	59.299892	40.909044
